<?xml version="1.0" standalone="no"?>
<!DOCTYPE svg PUBLIC "-//W3C//DTD SVG 20010904//EN"
 "http://www.w3.org/TR/2001/REC-SVG-20010904/DTD/svg10.dtd">
<svg version="1.0" xmlns="http://www.w3.org/2000/svg"
 width="403.000000pt" height="403.000000pt" viewBox="0 0 403.000000 403.000000"
 preserveAspectRatio="xMidYMid meet">
<metadata>
Created by potrace 1.14, written by Peter Selinger 2001-2017
</metadata>
<g transform="translate(0.000000,403.000000) scale(0.100000,-0.100000)"
fill="#000000" stroke="none">
<path d="M1010 3956 c0 -41 7 -126 15 -189 29 -223 93 -414 193 -579 l58 -93
-90 67 c-172 129 -306 183 -456 183 -84 0 -101 -3 -146 -27 -101 -53 -140
-131 -132 -264 4 -64 12 -89 51 -167 125 -250 433 -485 859 -658 59 -23 106
-45 104 -47 -2 -2 -46 6 -98 17 -433 93 -845 71 -1081 -57 -68 -36 -151 -114
-185 -171 -22 -38 -27 -58 -27 -116 0 -38 4 -82 9 -97 7 -25 6 -28 -15 -28
-13 0 -34 -3 -47 -6 -22 -6 -22 -7 -22 -220 0 -118 3 -214 8 -214 4 0 41 10
82 22 349 97 690 173 1004 222 l148 23 -43 -36 c-254 -210 -414 -412 -486
-612 -35 -100 -38 -241 -7 -309 46 -99 121 -145 239 -145 l80 0 0 -210 c0
-116 4 -218 7 -227 7 -17 39 -18 471 -18 l464 0 48 51 47 50 50 -17 c130 -43
261 33 337 197 49 105 65 209 58 384 -6 177 -36 332 -102 530 -23 72 -46 150
-49 175 l-6 45 22 -29 c13 -16 55 -73 95 -126 94 -126 246 -286 347 -364 180
-140 309 -196 461 -204 89 -4 107 -2 153 18 65 28 125 93 142 155 30 108 -5
245 -98 381 -54 80 -218 237 -321 307 -47 31 -78 57 -70 57 129 0 662 -74 912
-126 l27 -6 0 225 0 225 -63 11 c-35 6 -73 11 -84 11 -35 0 -33 12 11 61 81
90 96 186 45 288 -85 170 -355 252 -684 207 -214 -30 -473 -106 -682 -202 -42
-19 -75 -32 -71 -29 3 3 66 47 141 98 348 237 572 480 670 727 93 235 24 442
-160 480 -185 39 -430 -108 -629 -377 l-61 -82 -7 77 c-9 102 -39 249 -71 348
-51 155 -155 345 -246 449 l-31 35 -544 0 -544 0 0 -74z m706 -1359 c29 -67
47 -114 41 -104 -62 96 -148 223 -184 270 l-44 58 67 -50 c66 -50 68 -54 120
-174z m383 -334 c222 -71 245 -375 36 -486 -56 -30 -174 -30 -230 0 -207 111
-191 409 27 484 66 23 102 23 167 2z"/>
</g>
</svg>
