<svg xmlns="http://www.w3.org/2000/svg" xmlns:xlink="http://www.w3.org/1999/xlink" width="300" zoomAndPan="magnify" viewBox="0 0 224.87999 374.999991" height="500" preserveAspectRatio="xMidYMid meet" version="1.0"><defs><clipPath id="id1"><path d="M 29.75 117 L 195.410156 117 L 195.410156 374.898438 L 29.75 374.898438 Z M 29.75 117 " clip-rule="nonzero"/></clipPath></defs><path fill="rgb(83.918762%, 50.979614%, 47.839355%)" d="M 118.488281 120.167969 C 117.777344 118.796875 117.386719 117.222656 117.566406 115.539062 C 117.964844 111.867188 118.363281 108.203125 118.75 104.53125 C 119.214844 100.226562 119.777344 95.664062 122.464844 92.273438 C 123.65625 90.761719 125.640625 89.492188 127.433594 90.199219 C 129.050781 90.84375 129.722656 92.882812 129.371094 94.589844 C 128.613281 98.273438 126.046875 100.316406 125.679688 104.398438 C 125.304688 108.457031 125.804688 112.660156 127.003906 116.546875 C 127.4375 117.945312 127.972656 119.328125 128.097656 120.785156 C 128.699219 127.566406 121.207031 125.378906 118.488281 120.167969 Z M 118.488281 120.167969 " fill-opacity="1" fill-rule="nonzero"/><g clip-path="url(#id1)"><path fill="rgb(94.509888%, 92.549133%, 88.62915%)" d="M 194.304688 350.816406 C 193.859375 342.914062 193.402344 334.75 193.203125 330.636719 C 193.132812 329.300781 192.207031 328.238281 191.058594 328.199219 C 190.054688 328.164062 188.878906 328.117188 187.570312 328.074219 C 180.875 327.820312 170.464844 327.421875 163.394531 327.566406 C 162.542969 327.578125 161.851562 326.878906 161.890625 326.023438 C 164.601562 264.375 164.226562 198.855469 160.730469 120.300781 C 160.667969 118.941406 159.71875 117.863281 158.550781 117.847656 C 137.207031 117.488281 112.683594 118.910156 89.507812 121.847656 C 88.96875 121.914062 88.464844 122.214844 88.097656 122.695312 C 77.261719 136.824219 68.140625 148.824219 59.308594 160.425781 C 50.488281 172.03125 41.367188 184.023438 30.535156 198.140625 C 29.75 199.164062 29.789062 200.742188 30.625 201.710938 C 39.65625 212.1875 50.613281 222.675781 61.488281 231.253906 C 62.371094 231.957031 63.5625 231.804688 64.304688 230.917969 C 70.304688 223.707031 74.492188 218.917969 78.535156 214.289062 C 80.945312 211.523438 83.410156 208.703125 86.277344 205.355469 C 87.175781 204.300781 88.90625 204.941406 88.882812 206.324219 C 88.539062 230.347656 88.277344 254.503906 88.015625 277.964844 C 87.84375 293.695312 87.664062 309.914062 87.460938 326.011719 C 87.453125 326.839844 86.757812 327.496094 85.925781 327.46875 C 85.003906 327.429688 84.039062 327.394531 83.050781 327.347656 C 76.019531 327.0625 67.261719 326.707031 61.699219 327.050781 C 60.605469 327.117188 59.722656 328.101562 59.617188 329.382812 C 58.734375 339.832031 58.867188 360.519531 59.570312 371.339844 C 59.652344 372.558594 60.449219 373.546875 61.480469 373.710938 C 66.980469 374.570312 86.800781 374.867188 109.75 374.867188 C 141.585938 374.867188 179.429688 374.285156 193.269531 373.777344 C 193.867188 373.753906 194.429688 373.457031 194.835938 372.941406 C 195.238281 372.425781 195.441406 371.734375 195.410156 371.039062 C 195.203125 366.898438 194.746094 358.71875 194.304688 350.816406 Z M 194.304688 350.816406 " fill-opacity="1" fill-rule="nonzero"/></g><path fill="rgb(83.918762%, 50.979614%, 47.839355%)" d="M 109.75 364.507812 C 89.605469 364.507812 77.949219 364.273438 71.21875 364.011719 C 69.441406 363.945312 68.027344 362.519531 67.980469 360.746094 C 67.816406 354.347656 67.796875 346.980469 67.9375 340.597656 C 67.980469 338.734375 69.515625 337.269531 71.382812 337.308594 C 75.132812 337.382812 79.109375 337.546875 82.742188 337.695312 C 84.292969 337.761719 85.792969 337.824219 87.167969 337.867188 L 92.703125 338.070312 C 94.589844 338.136719 96.171875 336.640625 96.195312 334.75 L 96.285156 327.667969 C 96.492188 310.90625 96.679688 294.226562 96.859375 278.101562 L 96.867188 277.710938 C 97.144531 253.082031 97.429688 227.617188 97.796875 202.394531 L 98.035156 186.003906 C 98.082031 182.84375 94.132812 181.371094 92.089844 183.785156 L 82.667969 194.929688 C 78.667969 199.65625 75.488281 203.304688 72.410156 206.828125 L 72.355469 206.886719 C 69.792969 209.816406 67.1875 212.808594 64.09375 216.425781 C 62.882812 217.855469 60.734375 218.011719 59.308594 216.785156 C 53.804688 212.023438 48.398438 206.855469 43.378906 201.578125 C 42.234375 200.375 42.128906 198.527344 43.132812 197.203125 C 51.378906 186.429688 58.679688 176.824219 65.789062 167.46875 L 65.898438 167.320312 C 73.988281 156.683594 82.339844 145.707031 92.089844 132.972656 C 92.644531 132.25 93.46875 131.777344 94.375 131.664062 C 113.5625 129.390625 133.84375 128.152344 151.914062 128.152344 C 152.011719 128.152344 152.109375 128.152344 152.207031 128.152344 C 155.425781 203.84375 155.667969 267.214844 152.976562 327.054688 L 152.640625 334.644531 C 152.550781 336.605469 154.160156 338.226562 156.121094 338.160156 L 162.070312 337.957031 C 163.335938 337.914062 164.855469 337.890625 166.585938 337.890625 C 171.242188 337.890625 176.816406 338.046875 181.667969 338.21875 C 183.414062 338.277344 184.8125 339.65625 184.910156 341.390625 C 185.082031 344.441406 185.261719 347.757812 185.449219 351.042969 L 185.472656 351.496094 C 185.628906 354.339844 185.800781 357.328125 185.960938 360.171875 C 186.066406 362.070312 184.582031 363.667969 182.679688 363.714844 C 164.921875 364.125 135.347656 364.507812 109.75 364.507812 Z M 109.75 364.507812 " fill-opacity="1" fill-rule="nonzero"/><path fill="rgb(76.858521%, 39.99939%, 0.389099%)" d="M 101.617188 83.84375 C 97.570312 74.460938 97.578125 62.941406 101.667969 53.582031 C 104.296875 47.5625 108.445312 42.515625 110.960938 36.4375 C 114.648438 27.53125 114.566406 17.101562 118.160156 8.152344 C 119.738281 4.222656 123.003906 0.175781 126.707031 1.199219 C 129.964844 2.097656 131.492188 6.546875 131.207031 10.335938 C 130.921875 14.128906 129.410156 17.65625 128.824219 21.402344 C 127.792969 28.101562 129.84375 34.933594 132.652344 40.945312 C 135.460938 46.957031 139.039062 52.488281 141.453125 58.71875 C 145.734375 69.765625 145.195312 83.679688 137.535156 92.546875 C 132.433594 98.445312 125.246094 103.898438 118.03125 100.75 C 111.144531 97.746094 105.21875 91.84375 101.839844 84.367188 C 101.765625 84.191406 101.691406 84.015625 101.617188 83.84375 Z M 101.617188 83.84375 " fill-opacity="1" fill-rule="nonzero"/><path fill="rgb(90.19928%, 59.609985%, 25.099182%)" d="M 110.96875 88.183594 C 108.265625 82.632812 106.722656 76.191406 107.503906 69.910156 C 108.976562 58.023438 118.25 48.960938 120.234375 37.167969 C 121.367188 30.441406 120.101562 22.972656 123.171875 17.074219 C 123.550781 16.332031 124.070312 15.585938 124.808594 15.398438 C 126.023438 15.089844 127.117188 16.5625 127.160156 17.96875 C 127.207031 19.375 126.570312 20.683594 126.015625 21.941406 C 122.878906 29.085938 122.0625 37.507812 123.753906 45.257812 C 125.335938 52.460938 128.945312 58.902344 130.644531 66.066406 C 132.742188 74.933594 131.550781 84.652344 127.722656 92.707031 C 126.179688 95.957031 123.125 102.574219 119.761719 101.011719 C 116.4375 99.464844 112.632812 91.589844 110.96875 88.183594 Z M 110.96875 88.183594 " fill-opacity="1" fill-rule="nonzero"/></svg>